<?xml version="1.0" encoding="UTF-8" standalone="no"?>
<!-- Created with Inkscape (http://www.inkscape.org/) -->

<svg
   width="20mm"
   height="20mm"
   viewBox="0 0 20 20"
   version="1.1"
   id="svg1"
   inkscape:version="1.3 (0e150ed6c4, 2023-07-21)"
   sodipodi:docname="dinner.svg"
   inkscape:export-filename="dinner.png"
   inkscape:export-xdpi="254"
   inkscape:export-ydpi="254"
   xmlns:inkscape="http://www.inkscape.org/namespaces/inkscape"
   xmlns:sodipodi="http://sodipodi.sourceforge.net/DTD/sodipodi-0.dtd"
   xmlns="http://www.w3.org/2000/svg"
   xmlns:svg="http://www.w3.org/2000/svg">
  <sodipodi:namedview
     id="namedview1"
     pagecolor="#505050"
     bordercolor="#ffffff"
     borderopacity="1"
     inkscape:showpageshadow="0"
     inkscape:pageopacity="0"
     inkscape:pagecheckerboard="1"
     inkscape:deskcolor="#d1d1d1"
     inkscape:document-units="mm"
     inkscape:zoom="0.93103385"
     inkscape:cx="35.444469"
     inkscape:cy="-6.9814862"
     inkscape:window-width="1920"
     inkscape:window-height="974"
     inkscape:window-x="-11"
     inkscape:window-y="-11"
     inkscape:window-maximized="1"
     inkscape:current-layer="layer1" />
  <defs
     id="defs1" />
  <g
     inkscape:label="Layer 1"
     inkscape:groupmode="layer"
     id="layer1">
    <g
       id="g12"
       inkscape:label="plate"
       transform="matrix(1.1103407,0,0,1.1103407,-1.1221484,-1.1034071)">
      <circle
         style="fill:#e6e6e6;stroke-width:4.99999;stroke-linecap:round;stroke-linejoin:round"
         id="path1"
         cx="10"
         cy="10"
         r="9.0053625" />
      <circle
         style="fill:#ececec;stroke-width:3.16575;stroke-linecap:round;stroke-linejoin:round"
         id="circle1"
         cx="10"
         cy="10"
         r="5.7017431" />
      <circle
         id="path12"
         style="fill:#800000;stroke:#000000;stroke-width:0.264583"
         cx="13.915595"
         cy="6.7819691"
         r="0.0079033971" />
    </g>
    <g
       id="g11"
       inkscape:label="steak"
       transform="matrix(1.3650088,0,0,1.3650088,-2.7946324,-1.3125648)">
      <path
         style="fill:#aa0000;stroke-width:4.99999;stroke-linecap:round;stroke-linejoin:round"
         d="M 12.006596,5.2777405 C 9.8798709,6.630645 8.1724631,14.409443 8.7663222,14.119419 10.237653,14.892743 11.749389,15.019585 13.287635,14.72226 13.666126,14.7706 16.588491,9.27833 16.678619,9.1208561 16.950122,8.6464809 14.497211,4.1718658 12.006596,5.2777405 Z"
         id="path2"
         sodipodi:nodetypes="cccsc" />
      <path
         style="fill:#800000;stroke-width:4.99999;stroke-linecap:round;stroke-linejoin:round"
         id="path3"
         d="m 11.196262,6.9165702 c 0.335794,-0.048662 0.673584,-0.081077 1.010151,-0.1238269 0.396198,-0.047072 0.789088,-0.116469 1.183205,-0.1775081 0.127226,-0.020256 0.25337,-0.046501 0.379702,-0.07156 0.03229,-0.00641 0.14065,-0.028749 0.177649,-0.032596 0.0214,-0.00222 0.04302,-0.00103 0.06453,-0.00156 0.02816,4.233e-4 0.05631,8.467e-4 0.08447,0.00127 0.353537,0.00341 0.358355,-0.4965697 0.0048,-0.4999768 v 0 c -0.03815,-2.175e-4 -0.07631,-4.233e-4 -0.114467,-6.614e-4 -0.04077,0.00262 -0.08169,0.00338 -0.122295,0.00786 -0.04116,0.00454 -0.152156,0.027321 -0.192324,0.03529 -0.11935,0.023678 -0.238499,0.048586 -0.358674,0.06784 -0.389604,0.060436 -0.778015,0.1289828 -1.169678,0.1756005 -0.08256,0.010507 -0.165041,0.021664 -0.247682,0.031518 -0.273712,0.032635 -0.54906,0.054993 -0.820677,0.1032447 -0.342997,0.085749 -0.22173,0.5708205 0.121267,0.4850712 z" />
      <path
         style="fill:#800000;stroke-width:4.99999;stroke-linecap:round;stroke-linejoin:round"
         id="path4"
         d="m 10.669318,8.7181295 c 0.258304,-0.02136 0.514376,-0.066157 0.77044,-0.1048909 0.427273,-0.064633 0.344419,-0.051876 0.775193,-0.1132367 0.597382,-0.094289 1.198537,-0.1594363 1.800341,-0.217175 0.271729,-0.022116 0.543249,-0.048548 0.813276,-0.08634 0.159594,-0.028446 0.319583,-0.054585 0.478731,-0.085459 0.347058,-0.067458 0.251659,-0.5582721 -0.0954,-0.4908145 v 0 c -0.150524,0.029319 -0.30193,0.053641 -0.452796,0.081122 -0.262784,0.036962 -0.527123,0.062083 -0.791564,0.083777 -0.609411,0.058471 -1.218155,0.1245439 -1.823106,0.2198876 -0.431689,0.061505 -0.352937,0.049325 -0.780306,0.1139917 -0.251552,0.038063 -0.503038,0.082254 -0.756826,0.1029989 -0.350823,0.043853 -0.288806,0.5399918 0.06202,0.496139 z" />
      <path
         style="fill:#800000;stroke-width:4.99999;stroke-linecap:round;stroke-linejoin:round"
         id="path5"
         d="m 10.331852,10.405462 c 0.509734,-0.0862 1.026028,-0.124532 1.540584,-0.169325 0.146539,-0.01306 0.293179,-0.02503 0.439616,-0.03919 0.131312,-0.0127 0.262446,-0.0272 0.393605,-0.04139 0.287315,-0.03109 0.574929,-0.06237 0.860194,-0.109286 0.07381,-0.01214 0.147234,-0.02654 0.220851,-0.03981 0.06989,-0.013335 0.139789,-0.026605 0.209666,-0.040002 0.08339,-0.015989 0.293498,-0.057404 0.379631,-0.070994 0.214489,-0.033841 0.430682,-0.052374 0.646837,-0.0714 C 15.2413,9.808899 15.459752,9.79384 15.678079,9.776794 16.03056,9.749268 15.991633,9.250786 15.639149,9.2783116 v 0 c -0.219998,0.017182 -0.440131,0.032246 -0.660257,0.047688 -0.231363,0.020457 -0.462426,0.041138 -0.691989,0.077467 -0.08785,0.013904 -0.297717,0.055256 -0.384269,0.071856 -0.06828,0.013094 -0.136581,0.026075 -0.204871,0.039111 -0.06879,0.01247 -0.137395,0.026017 -0.206372,0.037412 -0.277889,0.045908 -0.558157,0.076132 -0.838065,0.1064567 -0.128517,0.013922 -0.257005,0.028174 -0.385674,0.040618 -0.146093,0.014129 -0.292391,0.026064 -0.438586,0.039098 -0.520765,0.045346 -1.043343,0.084192 -1.559235,0.1713016 -0.3508227,0.043853 -0.2888054,0.5399921 0.06202,0.4961391 z" />
      <path
         style="fill:#800000;stroke-width:4.99999;stroke-linecap:round;stroke-linejoin:round"
         id="path6"
         d="m 10.011647,11.830428 c 0.49915,1.38e-4 0.998246,0.0024 1.497328,-0.0064 0.627646,-0.01227 1.253814,-0.0582 1.880596,-0.09001 0.395285,-0.01653 0.790814,-0.02734 1.186285,-0.03863 0.179782,-0.0069 0.359605,-0.0062 0.539423,-0.002 0.35346,0.0081 0.364976,-0.491725 0.01152,-0.499868 v 0 c -0.188414,-0.0043 -0.376839,-0.0051 -0.565213,0.0021 -0.399166,0.0114 -0.79839,0.02231 -1.197364,0.03907 -0.621293,0.03155 -1.241976,0.07707 -1.864116,0.08944 -0.496123,0.0089 -0.992264,0.0064 -1.488456,0.0063 -0.3535534,0 -0.3535534,0.499999 0,0.499999 z" />
      <path
         style="fill:#800000;stroke-width:4.99999;stroke-linecap:round;stroke-linejoin:round"
         id="path7"
         d="m 9.48091,13.274579 c 0.2844829,-0.08641 0.583741,-0.09608 0.878433,-0.112243 0.466639,-0.02242 0.933936,-0.0059 1.400685,0.0041 0.29721,0.0071 0.594463,0.0115 0.891749,0.0132 0.246058,0.0011 0.492119,9e-4 0.738178,8.47e-4 0.14368,-4.4e-5 0.07299,7.67e-4 0.212078,-0.0022 0.353466,-0.0079 0.342359,-0.50773 -0.01111,-0.499877 v 0 c -0.128121,0.0029 -0.0611,0.0021 -0.20108,0.0021 -0.245075,5.4e-5 -0.490151,2.05e-4 -0.735224,-8.47e-4 -0.294665,-0.0017 -0.589297,-0.0061 -0.883886,-0.01309 -0.479514,-0.01027 -0.959589,-0.02695 -1.438976,-0.0034 -0.3543769,0.01972 -0.7164645,0.0335 -1.0539191,0.154575 -0.3230811,0.143592 -0.1200121,0.600498 0.2030693,0.456906 z" />
      <path
         style="fill:#800000;stroke-width:4.99999;stroke-linecap:round;stroke-linejoin:round"
         id="path8"
         d="m 10.544489,14.601206 c 0.02431,0 0.04863,-7.94e-4 0.07293,0 0.08633,0.0029 0.172583,0.01118 0.258567,0.01857 0.153591,0.01319 0.307115,0.02715 0.460692,0.04051 0.225128,0.02044 0.451222,0.02527 0.676787,0.03889 0.143618,0.0104 0.28727,0.01952 0.431198,0.02408 0.07692,0.0023 0.153892,0.0022 0.230843,0.0025 0.353552,10e-4 0.354994,-0.498978 0.0014,-0.499998 v 0 c -0.07219,-2.06e-4 -0.144398,-1.09e-4 -0.216565,-0.0022 -0.139169,-0.0044 -0.278049,-0.01347 -0.416923,-0.02342 -0.221133,-0.01323 -0.442757,-0.01823 -0.663475,-0.03791 -0.278069,-0.02418 -0.556272,-0.05702 -0.835492,-0.06095 -0.353553,0 -0.353553,0.500001 0,0.500001 z" />
      <path
         style="fill:#800000;stroke-width:4.99999;stroke-linecap:round;stroke-linejoin:round"
         id="path9"
         d="m 9.9389918,9.9174423 c 0.050857,0.1795617 0.074462,0.3657727 0.096892,0.5506357 0.02825,0.321357 0.02148,0.644745 0.02022,0.967031 -0.003,0.04883 -0.0044,0.09778 -0.0089,0.146496 -0.0081,0.0876 -0.02739,0.205686 -0.04026,0.291906 -0.023043,0.154285 -0.043442,0.308371 -0.060696,0.463407 -0.01538,0.208077 -0.058699,0.412127 -0.09419,0.617246 -0.023297,0.137741 -0.038946,0.276573 -0.046462,0.416035 -0.00408,0.106476 -0.00334,0.213068 -0.00317,0.319602 2.085e-4,0.08474 3.969e-4,0.169476 5.027e-4,0.254214 4.498e-4,0.353553 0.5004605,0.352901 0.4999995,-6.61e-4 v 0 c -1.11e-4,-0.08479 -2.91e-4,-0.169578 -5.03e-4,-0.254366 -1.57e-4,-0.09749 -8.47e-4,-0.195028 0.0025,-0.292475 0.0061,-0.119765 0.02012,-0.238916 0.03985,-0.357209 0.03713,-0.215097 0.08208,-0.429132 0.09845,-0.647279 0.01555,-0.140746 0.01511,-0.146063 0.03515,-0.288658 0.03111,-0.221406 0.07416,-0.442006 0.07779,-0.666317 0.0013,-0.343142 0.0083,-0.687493 -0.02389,-1.029514 C 10.507055,10.202243 10.480004,9.9957278 10.424068,9.796165 10.338319,9.4531676 9.8532478,9.5744354 9.9389971,9.9174328 Z" />
      <path
         style="fill:#800000;stroke-width:4.99999;stroke-linecap:round;stroke-linejoin:round"
         id="path10"
         d="m 11.740217,7.3426258 c -0.01973,0.2766605 -0.01604,0.5549694 -0.01491,0.8322289 0.0094,0.4884814 0.06064,0.9746266 0.100466,1.4611882 0.02494,0.3083414 0.03298,0.6176321 0.03694,0.9268391 0.0074,0.294602 -0.01463,0.588495 -0.04167,0.881568 -0.03334,0.404212 -0.07636,0.807463 -0.117127,1.210958 -0.0336,0.268284 -0.07276,0.535538 -0.09317,0.805264 -0.01332,0.168679 -0.0111,0.337936 -0.0167,0.506885 -0.0085,0.182901 -0.01369,0.365824 -0.0089,0.548869 0.0017,0.03901 0.0035,0.07803 0.0053,0.117038 0.01597,0.353193 0.515458,0.33061 0.49949,-0.02258 v 0 c -0.0016,-0.03622 -0.0033,-0.07243 -0.0049,-0.108644 -0.0053,-0.172932 0.0015,-0.345786 0.0088,-0.518596 0.0051,-0.161838 0.0034,-0.323925 0.01556,-0.485519 0.01977,-0.265479 0.06002,-0.528301 0.09204,-0.792456 0.04091,-0.404959 0.08408,-0.809674 0.117552,-1.21535 0.02855,-0.310459 0.05145,-0.621796 0.04374,-0.933853 -0.0041,-0.320681 -0.01265,-0.6414408 -0.03856,-0.9612188 -0.03879,-0.4736865 -0.0888,-0.9469496 -0.0988,-1.4224683 -0.0011,-0.2493274 -9.53e-4,-0.4987504 0.0081,-0.7479506 0.05812,-0.3487428 -0.435073,-0.4309425 -0.493197,-0.082199 z" />
      <path
         style="fill:#800000;stroke-width:4.99999;stroke-linecap:round;stroke-linejoin:round"
         id="path11"
         d="m 12.972127,5.8923316 c 0.05837,0.266519 0.09588,0.5366732 0.133064,0.8067649 0.04401,0.2834256 0.09255,0.566271 0.129289,0.8507587 0.03333,0.2730984 0.07497,0.5450173 0.112551,0.8175199 0.0329,0.2291164 0.05689,0.4593462 0.08598,0.6889313 0.03259,0.2475029 0.07613,0.4935913 0.117872,0.7397289 0.0516,0.3154407 0.09601,0.6319997 0.140229,0.9485507 0.04638,0.357513 0.109576,0.71247 0.164653,1.068668 0.0242,0.157265 0.01179,0.08095 0.03702,0.228974 0.05951,0.34851 0.552373,0.264355 0.492867,-0.08415 v 0 c -0.02396,-0.140031 -0.01192,-0.06631 -0.03576,-0.221229 -0.05471,-0.353791 -0.11748,-0.706349 -0.16359,-1.061442 -0.0449,-0.321372 -0.09003,-0.642746 -0.14246,-0.9629853 C 14.003247,9.4731246 13.96079,9.2338934 13.929025,8.9932895 13.899554,8.7619302 13.875626,8.5298655 13.84233,8.2989768 13.804837,8.027839 13.763531,7.7572554 13.730324,7.485517 13.693091,7.1997744 13.64528,6.9155137 13.600515,6.6308768 13.562666,6.3561428 13.524808,6.0812177 13.465324,5.8101319 13.4072,5.4613891 12.914003,5.5435886 12.972127,5.8923316 Z" />
    </g>
    <g
       id="g66"
       inkscape:label="leaves"
       transform="matrix(1.1103407,0,0,1.1103407,-1.1024272,-1.1034071)">
      <g
         id="g41"
         inkscape:label="leaf">
        <path
           style="fill:#5fd35f;fill-opacity:1;stroke:#71c837;stroke-width:0.1;stroke-linecap:round;stroke-linejoin:round;stroke-dasharray:none;stroke-opacity:1"
           d="M 5.8967824,10 C 4.557307,9.7923708 3.325579,9.3872046 1.7228551,9.6621977 1.390946,9.1730684 1.782663,11.8048 2.2912198,12.820193 c 0.2947565,0.588515 2.391009,2.55035 2.4777144,2.348037 1.0688763,0.291066 2.5048705,0.234132 3.6677276,0.196265 C 8.8154719,14.429258 9.4988929,13.590924 8.8984579,12.344168 8.2513165,10.636879 7.4635217,10.82841 6.7315681,10.266085 Z"
           id="path16"
           sodipodi:nodetypes="ccsccccc" />
        <path
           style="fill:#71c837;fill-opacity:1;stroke-width:4.99999;stroke-linecap:round;stroke-linejoin:round"
           id="path30"
           d="m 2.0197607,10.098497 c 0.3423418,0.190411 0.6588537,0.42256 0.9745437,0.653337 0.2777937,0.194588 0.526049,0.426328 0.7908819,0.637267 0.1539271,0.122602 0.2154692,0.165473 0.3724074,0.280687 0.2882696,0.203284 0.5589616,0.429509 0.8376409,0.645386 0.2555565,0.190518 0.5178599,0.371716 0.785564,0.544677 0.2759133,0.172296 0.5586995,0.333164 0.8381024,0.499656 0.223906,0.129712 0.4252939,0.291865 0.624754,0.455471 0.2011981,0.166059 0.4090876,0.323747 0.6155703,0.483117 0.1504786,0.11227 0.297189,0.229448 0.4521658,0.335532 0.018547,0.01287 0.037093,0.02575 0.055639,0.03862 0.058087,0.04032 0.115112,-0.04182 0.057025,-0.08215 v 0 c -0.018733,-0.013 -0.037466,-0.02601 -0.056199,-0.03901 C 8.2144067,14.446165 8.0693471,14.329956 7.9203258,14.218932 7.7146244,14.060165 7.5075128,13.903085 7.3070724,13.737659 7.1037489,13.5709 6.8982952,13.405845 6.6700889,13.273601 6.3917165,13.107736 6.1100001,12.947431 5.835061,12.775853 5.5697283,12.604473 5.3098025,12.424852 5.0564732,12.236118 4.7771068,12.019721 4.5057501,11.792944 4.2167669,11.589175 4.0621452,11.475693 4.0001904,11.432502 3.8486066,11.311784 3.5823072,11.099708 3.3326765,10.866705 3.0533176,10.671103 2.7337369,10.437503 2.4132445,10.202619 2.0665495,10.010119 c -0.062493,-0.033085 -0.109282,0.05529 -0.046789,0.08838 z" />
        <path
           style="fill:#71c837;fill-opacity:1;stroke-width:4.99999;stroke-linecap:round;stroke-linejoin:round"
           id="path32"
           d="m 4.2304956,10.133852 c -0.00212,0.192064 -2.257e-4,0.383784 0.010189,0.575578 0.00127,0.03135 0.00254,0.06269 0.00382,0.09404 0.00287,0.07065 0.1027872,0.06659 0.099917,-0.0041 v 0 c -0.0013,-0.0318 -0.00259,-0.06361 -0.00388,-0.09541 -0.01034,-0.189985 -0.012128,-0.379895 -0.010041,-0.570149 0,-0.07071 -0.1000001,-0.07071 -0.1000001,0 z" />
        <path
           style="fill:#71c837;fill-opacity:1;stroke-width:4.99999;stroke-linecap:round;stroke-linejoin:round"
           id="path33"
           d="m 5.4027477,10.58562 c -0.00238,0.285798 0.0027,0.571513 0.00805,0.857244 0.00375,0.132269 0.00515,0.264342 0.00225,0.39661 -0.00153,0.07069 0.098449,0.07286 0.099977,0.0022 v 0 c 0.00285,-0.133613 0.00161,-0.267031 -0.00225,-0.400643 -0.00534,-0.285107 -0.010411,-0.570198 -0.00804,-0.855371 0,-0.07071 -0.1,-0.07071 -0.1,0 z" />
        <path
           style="fill:#71c837;fill-opacity:1;stroke-width:4.99999;stroke-linecap:round;stroke-linejoin:round"
           id="path34"
           d="m 6.6282839,10.924617 c 2.646e-4,0.240788 -0.00673,0.481523 -0.010692,0.722272 -0.00415,0.261538 -0.0037,0.52309 -0.011867,0.784544 -0.00337,0.09599 -0.00706,0.191974 -0.00985,0.287987 -0.00206,0.07068 0.097904,0.07359 0.099958,0.0029 v 0 c 0.00279,-0.09594 0.00648,-0.191849 0.00984,-0.287771 0.00818,-0.261946 0.00777,-0.52399 0.011901,-0.78602 0.00397,-0.241298 0.010988,-0.482581 0.010705,-0.723917 0,-0.07071 -0.1,-0.07071 -0.1,0 z" />
        <path
           style="fill:#71c837;fill-opacity:1;stroke-width:4.99999;stroke-linecap:round;stroke-linejoin:round"
           id="path35"
           d="m 7.7117288,11.785661 c 0.0056,0.24709 -0.060681,0.487487 -0.1206793,0.724884 -0.058714,0.226525 -0.1120762,0.454365 -0.1529141,0.684806 -0.01233,0.06963 0.086139,0.08706 0.098468,0.01744 v 0 c 0.040352,-0.228082 0.093339,-0.453541 0.1513985,-0.677745 0.061998,-0.245426 0.129554,-0.493973 0.1237266,-0.749381 0,-0.07071 -0.1000001,-0.07071 -0.1000001,0 z" />
        <path
           style="fill:#71c837;fill-opacity:1;stroke-width:4.99999;stroke-linecap:round;stroke-linejoin:round"
           id="path36"
           d="m 8.4413642,12.937578 c -0.1085453,0.149951 -0.2034143,0.308377 -0.2905117,0.471494 -0.033292,0.06238 0.05493,0.109465 0.088223,0.04708 v 0 c 0.085075,-0.159498 0.177855,-0.31433 0.2839857,-0.460908 0.040778,-0.05777 -0.040919,-0.115437 -0.081697,-0.05767 z" />
        <path
           style="fill:#71c837;fill-opacity:1;stroke-width:4.99999;stroke-linecap:round;stroke-linejoin:round"
           id="path37"
           d="m 2.2408895,11.945446 c 0.2071887,-0.01706 0.4151125,-0.0211 0.6225681,-0.03412 0.037646,-0.0025 0.075293,-0.0051 0.112939,-0.0076 0.070549,-0.0048 0.063806,-0.104541 -0.00674,-0.09977 v 0 c -0.037489,0.0025 -0.074977,0.0051 -0.1124659,0.0076 -0.2097722,0.01319 -0.4200487,0.017 -0.6295141,0.0348 -0.07009,0.0093 -0.056874,0.108468 0.013216,0.09912 z" />
        <path
           style="fill:#71c837;fill-opacity:1;stroke-width:4.99999;stroke-linecap:round;stroke-linejoin:round"
           id="path38"
           d="m 2.6634442,12.838203 c 0.2255658,-0.0011 0.4517107,-0.01327 0.675594,-0.04103 0.2407528,-0.03827 0.4820052,-0.07305 0.722232,-0.114502 0.06968,-0.01203 0.052671,-0.11057 -0.01701,-0.09854 v 0 c -0.2386796,0.04122 -0.4783966,0.07569 -0.7175878,0.113812 -0.2197415,0.02753 -0.4418211,0.03894 -0.6632287,0.04026 -0.070711,0 -0.070711,0.1 5e-7,0.1 z" />
        <path
           style="fill:#71c837;fill-opacity:1;stroke-width:4.99999;stroke-linecap:round;stroke-linejoin:round"
           id="path39"
           d="m 3.8669698,13.761795 c 0.018724,-0.0031 0.037597,-0.0054 0.056175,-0.0093 0.07022,-0.01468 0.1680594,-0.04105 0.2340343,-0.05828 0.1559912,-0.04073 0.3119959,-0.08141 0.4678415,-0.122695 0.1882997,-0.04747 0.376138,-0.09623 0.5632844,-0.148028 0.06242,-0.01858 0.1257409,-0.03376 0.1887313,-0.05021 0.068416,-0.01787 0.043146,-0.114623 -0.02527,-0.09675 v 0 c -0.063457,0.01658 -0.12725,0.03188 -0.1901367,0.05059 -0.1867916,0.0517 -0.3742774,0.100347 -0.5622187,0.14774 -0.2435182,0.06452 -0.4867288,0.131413 -0.7324415,0.186922 -0.070711,0 -0.070711,0.1 0,0.1 z" />
        <path
           style="fill:#71c837;fill-opacity:1;stroke-width:4.99999;stroke-linecap:round;stroke-linejoin:round"
           id="path40"
           d="m 4.8301441,14.550642 c 0.2200833,-0.0778 0.437782,-0.161334 0.6505649,-0.257358 0.040638,-0.02094 0.081493,-0.04146 0.1219134,-0.06282 0.063528,-0.03356 0.1518481,-0.08362 0.2164813,-0.116414 0.098672,-0.05006 0.2009074,-0.09243 0.3009588,-0.139593 0.097848,-0.0495 0.2027332,-0.08012 0.3086581,-0.106327 0.068624,-0.01705 0.04451,-0.1141 -0.024114,-0.09705 v 0 c -0.1122437,0.028 -0.2234129,0.0606 -0.3271988,0.11293 -0.1015162,0.0479 -0.2051781,0.09096 -0.3053141,0.141777 -0.064632,0.0328 -0.1515944,0.08208 -0.2153187,0.115805 -0.03887,0.02057 -0.078147,0.04037 -0.1172205,0.06055 -0.2121622,0.09587 -0.4294664,0.178598 -0.6488023,0.256581 -0.064993,0.02786 -0.025601,0.119769 0.039392,0.09192 z" />
        <path
           style="fill:#71c837;fill-opacity:1;stroke-width:4.99999;stroke-linecap:round;stroke-linejoin:round"
           id="path41"
           d="m 6.0605402,15.187661 c 0.1745295,-0.07967 0.3240715,-0.202817 0.4806061,-0.311843 0.030405,-0.02095 0.060773,-0.04195 0.091216,-0.06284 0.072536,-0.04978 0.1026824,-0.07252 0.179595,-0.11525 0.096713,-0.05373 0.1984322,-0.09806 0.2987106,-0.144544 0.077306,-0.03476 0.1565968,-0.06469 0.2349605,-0.09694 0.065388,-0.02691 0.027325,-0.119387 -0.038063,-0.09247 v 0 c -0.079702,0.03281 -0.16037,0.06322 -0.2389537,0.09868 -0.1035618,0.04801 -0.2084466,0.09395 -0.3082414,0.149605 -0.079233,0.04419 -0.1106421,0.06771 -0.1847419,0.118568 -0.030584,0.02099 -0.061093,0.04209 -0.09164,0.06314 -0.1513187,0.105416 -0.295779,0.224733 -0.4640625,0.302517 -0.064616,0.02872 -0.024003,0.1201 0.040614,0.09138 z" />
      </g>
      <g
         id="g53"
         inkscape:label="leaf"
         transform="rotate(25.164874,3.3329366,11.993187)">
        <path
           style="fill:#5fd35f;fill-opacity:1;stroke:#71c837;stroke-width:0.1;stroke-linecap:round;stroke-linejoin:round;stroke-dasharray:none;stroke-opacity:1"
           d="M 5.8967824,10 C 4.557307,9.7923708 3.325579,9.3872046 1.7228551,9.6621977 1.390946,9.1730684 1.782663,11.8048 2.2912198,12.820193 c 0.2947565,0.588515 2.391009,2.55035 2.4777144,2.348037 1.0688763,0.291066 2.5048705,0.234132 3.6677276,0.196265 C 8.8154719,14.429258 9.4988929,13.590924 8.8984579,12.344168 8.2513165,10.636879 7.4635217,10.82841 6.7315681,10.266085 Z"
           id="path42"
           sodipodi:nodetypes="ccsccccc" />
        <path
           style="fill:#71c837;fill-opacity:1;stroke-width:4.99999;stroke-linecap:round;stroke-linejoin:round"
           id="path43"
           d="m 2.0197607,10.098497 c 0.3423418,0.190411 0.6588537,0.42256 0.9745437,0.653337 0.2777937,0.194588 0.526049,0.426328 0.7908819,0.637267 0.1539271,0.122602 0.2154692,0.165473 0.3724074,0.280687 0.2882696,0.203284 0.5589616,0.429509 0.8376409,0.645386 0.2555565,0.190518 0.5178599,0.371716 0.785564,0.544677 0.2759133,0.172296 0.5586995,0.333164 0.8381024,0.499656 0.223906,0.129712 0.4252939,0.291865 0.624754,0.455471 0.2011981,0.166059 0.4090876,0.323747 0.6155703,0.483117 0.1504786,0.11227 0.297189,0.229448 0.4521658,0.335532 0.018547,0.01287 0.037093,0.02575 0.055639,0.03862 0.058087,0.04032 0.115112,-0.04182 0.057025,-0.08215 v 0 c -0.018733,-0.013 -0.037466,-0.02601 -0.056199,-0.03901 C 8.2144067,14.446165 8.0693471,14.329956 7.9203258,14.218932 7.7146244,14.060165 7.5075128,13.903085 7.3070724,13.737659 7.1037489,13.5709 6.8982952,13.405845 6.6700889,13.273601 6.3917165,13.107736 6.1100001,12.947431 5.835061,12.775853 5.5697283,12.604473 5.3098025,12.424852 5.0564732,12.236118 4.7771068,12.019721 4.5057501,11.792944 4.2167669,11.589175 4.0621452,11.475693 4.0001904,11.432502 3.8486066,11.311784 3.5823072,11.099708 3.3326765,10.866705 3.0533176,10.671103 2.7337369,10.437503 2.4132445,10.202619 2.0665495,10.010119 c -0.062493,-0.033085 -0.109282,0.05529 -0.046789,0.08838 z" />
        <path
           style="fill:#71c837;fill-opacity:1;stroke-width:4.99999;stroke-linecap:round;stroke-linejoin:round"
           id="path44"
           d="m 4.2304956,10.133852 c -0.00212,0.192064 -2.257e-4,0.383784 0.010189,0.575578 0.00127,0.03135 0.00254,0.06269 0.00382,0.09404 0.00287,0.07065 0.1027872,0.06659 0.099917,-0.0041 v 0 c -0.0013,-0.0318 -0.00259,-0.06361 -0.00388,-0.09541 -0.01034,-0.189985 -0.012128,-0.379895 -0.010041,-0.570149 0,-0.07071 -0.1000001,-0.07071 -0.1000001,0 z" />
        <path
           style="fill:#71c837;fill-opacity:1;stroke-width:4.99999;stroke-linecap:round;stroke-linejoin:round"
           id="path45"
           d="m 5.4027477,10.58562 c -0.00238,0.285798 0.0027,0.571513 0.00805,0.857244 0.00375,0.132269 0.00515,0.264342 0.00225,0.39661 -0.00153,0.07069 0.098449,0.07286 0.099977,0.0022 v 0 c 0.00285,-0.133613 0.00161,-0.267031 -0.00225,-0.400643 -0.00534,-0.285107 -0.010411,-0.570198 -0.00804,-0.855371 0,-0.07071 -0.1,-0.07071 -0.1,0 z" />
        <path
           style="fill:#71c837;fill-opacity:1;stroke-width:4.99999;stroke-linecap:round;stroke-linejoin:round"
           id="path46"
           d="m 6.6282839,10.924617 c 2.646e-4,0.240788 -0.00673,0.481523 -0.010692,0.722272 -0.00415,0.261538 -0.0037,0.52309 -0.011867,0.784544 -0.00337,0.09599 -0.00706,0.191974 -0.00985,0.287987 -0.00206,0.07068 0.097904,0.07359 0.099958,0.0029 v 0 c 0.00279,-0.09594 0.00648,-0.191849 0.00984,-0.287771 0.00818,-0.261946 0.00777,-0.52399 0.011901,-0.78602 0.00397,-0.241298 0.010988,-0.482581 0.010705,-0.723917 0,-0.07071 -0.1,-0.07071 -0.1,0 z" />
        <path
           style="fill:#71c837;fill-opacity:1;stroke-width:4.99999;stroke-linecap:round;stroke-linejoin:round"
           id="path47"
           d="m 7.7117288,11.785661 c 0.0056,0.24709 -0.060681,0.487487 -0.1206793,0.724884 -0.058714,0.226525 -0.1120762,0.454365 -0.1529141,0.684806 -0.01233,0.06963 0.086139,0.08706 0.098468,0.01744 v 0 c 0.040352,-0.228082 0.093339,-0.453541 0.1513985,-0.677745 0.061998,-0.245426 0.129554,-0.493973 0.1237266,-0.749381 0,-0.07071 -0.1000001,-0.07071 -0.1000001,0 z" />
        <path
           style="fill:#71c837;fill-opacity:1;stroke-width:4.99999;stroke-linecap:round;stroke-linejoin:round"
           id="path48"
           d="m 8.4413642,12.937578 c -0.1085453,0.149951 -0.2034143,0.308377 -0.2905117,0.471494 -0.033292,0.06238 0.05493,0.109465 0.088223,0.04708 v 0 c 0.085075,-0.159498 0.177855,-0.31433 0.2839857,-0.460908 0.040778,-0.05777 -0.040919,-0.115437 -0.081697,-0.05767 z" />
        <path
           style="fill:#71c837;fill-opacity:1;stroke-width:4.99999;stroke-linecap:round;stroke-linejoin:round"
           id="path49"
           d="m 2.2408895,11.945446 c 0.2071887,-0.01706 0.4151125,-0.0211 0.6225681,-0.03412 0.037646,-0.0025 0.075293,-0.0051 0.112939,-0.0076 0.070549,-0.0048 0.063806,-0.104541 -0.00674,-0.09977 v 0 c -0.037489,0.0025 -0.074977,0.0051 -0.1124659,0.0076 -0.2097722,0.01319 -0.4200487,0.017 -0.6295141,0.0348 -0.07009,0.0093 -0.056874,0.108468 0.013216,0.09912 z" />
        <path
           style="fill:#71c837;fill-opacity:1;stroke-width:4.99999;stroke-linecap:round;stroke-linejoin:round"
           id="path50"
           d="m 2.6634442,12.838203 c 0.2255658,-0.0011 0.4517107,-0.01327 0.675594,-0.04103 0.2407528,-0.03827 0.4820052,-0.07305 0.722232,-0.114502 0.06968,-0.01203 0.052671,-0.11057 -0.01701,-0.09854 v 0 c -0.2386796,0.04122 -0.4783966,0.07569 -0.7175878,0.113812 -0.2197415,0.02753 -0.4418211,0.03894 -0.6632287,0.04026 -0.070711,0 -0.070711,0.1 5e-7,0.1 z" />
        <path
           style="fill:#71c837;fill-opacity:1;stroke-width:4.99999;stroke-linecap:round;stroke-linejoin:round"
           id="path51"
           d="m 3.8669698,13.761795 c 0.018724,-0.0031 0.037597,-0.0054 0.056175,-0.0093 0.07022,-0.01468 0.1680594,-0.04105 0.2340343,-0.05828 0.1559912,-0.04073 0.3119959,-0.08141 0.4678415,-0.122695 0.1882997,-0.04747 0.376138,-0.09623 0.5632844,-0.148028 0.06242,-0.01858 0.1257409,-0.03376 0.1887313,-0.05021 0.068416,-0.01787 0.043146,-0.114623 -0.02527,-0.09675 v 0 c -0.063457,0.01658 -0.12725,0.03188 -0.1901367,0.05059 -0.1867916,0.0517 -0.3742774,0.100347 -0.5622187,0.14774 -0.2435182,0.06452 -0.4867288,0.131413 -0.7324415,0.186922 -0.070711,0 -0.070711,0.1 0,0.1 z" />
        <path
           style="fill:#71c837;fill-opacity:1;stroke-width:4.99999;stroke-linecap:round;stroke-linejoin:round"
           id="path52"
           d="m 4.8301441,14.550642 c 0.2200833,-0.0778 0.437782,-0.161334 0.6505649,-0.257358 0.040638,-0.02094 0.081493,-0.04146 0.1219134,-0.06282 0.063528,-0.03356 0.1518481,-0.08362 0.2164813,-0.116414 0.098672,-0.05006 0.2009074,-0.09243 0.3009588,-0.139593 0.097848,-0.0495 0.2027332,-0.08012 0.3086581,-0.106327 0.068624,-0.01705 0.04451,-0.1141 -0.024114,-0.09705 v 0 c -0.1122437,0.028 -0.2234129,0.0606 -0.3271988,0.11293 -0.1015162,0.0479 -0.2051781,0.09096 -0.3053141,0.141777 -0.064632,0.0328 -0.1515944,0.08208 -0.2153187,0.115805 -0.03887,0.02057 -0.078147,0.04037 -0.1172205,0.06055 -0.2121622,0.09587 -0.4294664,0.178598 -0.6488023,0.256581 -0.064993,0.02786 -0.025601,0.119769 0.039392,0.09192 z" />
        <path
           style="fill:#71c837;fill-opacity:1;stroke-width:4.99999;stroke-linecap:round;stroke-linejoin:round"
           id="path53"
           d="m 6.0605402,15.187661 c 0.1745295,-0.07967 0.3240715,-0.202817 0.4806061,-0.311843 0.030405,-0.02095 0.060773,-0.04195 0.091216,-0.06284 0.072536,-0.04978 0.1026824,-0.07252 0.179595,-0.11525 0.096713,-0.05373 0.1984322,-0.09806 0.2987106,-0.144544 0.077306,-0.03476 0.1565968,-0.06469 0.2349605,-0.09694 0.065388,-0.02691 0.027325,-0.119387 -0.038063,-0.09247 v 0 c -0.079702,0.03281 -0.16037,0.06322 -0.2389537,0.09868 -0.1035618,0.04801 -0.2084466,0.09395 -0.3082414,0.149605 -0.079233,0.04419 -0.1106421,0.06771 -0.1847419,0.118568 -0.030584,0.02099 -0.061093,0.04209 -0.09164,0.06314 -0.1513187,0.105416 -0.295779,0.224733 -0.4640625,0.302517 -0.064616,0.02872 -0.024003,0.1201 0.040614,0.09138 z" />
      </g>
      <g
         id="g65"
         inkscape:label="leaf"
         transform="rotate(-154.83513,4.8943182,10.649872)">
        <path
           style="fill:#5fd35f;fill-opacity:1;stroke:#71c837;stroke-width:0.1;stroke-linecap:round;stroke-linejoin:round;stroke-dasharray:none;stroke-opacity:1"
           d="M 5.8967824,10 C 4.557307,9.7923708 3.325579,9.3872046 1.7228551,9.6621977 1.390946,9.1730684 1.782663,11.8048 2.2912198,12.820193 c 0.2947565,0.588515 2.391009,2.55035 2.4777144,2.348037 1.0688763,0.291066 2.5048705,0.234132 3.6677276,0.196265 C 8.8154719,14.429258 9.4988929,13.590924 8.8984579,12.344168 8.2513165,10.636879 7.4635217,10.82841 6.7315681,10.266085 Z"
           id="path54"
           sodipodi:nodetypes="ccsccccc" />
        <path
           style="fill:#71c837;fill-opacity:1;stroke-width:4.99999;stroke-linecap:round;stroke-linejoin:round"
           id="path55"
           d="m 2.0197607,10.098497 c 0.3423418,0.190411 0.6588537,0.42256 0.9745437,0.653337 0.2777937,0.194588 0.526049,0.426328 0.7908819,0.637267 0.1539271,0.122602 0.2154692,0.165473 0.3724074,0.280687 0.2882696,0.203284 0.5589616,0.429509 0.8376409,0.645386 0.2555565,0.190518 0.5178599,0.371716 0.785564,0.544677 0.2759133,0.172296 0.5586995,0.333164 0.8381024,0.499656 0.223906,0.129712 0.4252939,0.291865 0.624754,0.455471 0.2011981,0.166059 0.4090876,0.323747 0.6155703,0.483117 0.1504786,0.11227 0.297189,0.229448 0.4521658,0.335532 0.018547,0.01287 0.037093,0.02575 0.055639,0.03862 0.058087,0.04032 0.115112,-0.04182 0.057025,-0.08215 v 0 c -0.018733,-0.013 -0.037466,-0.02601 -0.056199,-0.03901 C 8.2144067,14.446165 8.0693471,14.329956 7.9203258,14.218932 7.7146244,14.060165 7.5075128,13.903085 7.3070724,13.737659 7.1037489,13.5709 6.8982952,13.405845 6.6700889,13.273601 6.3917165,13.107736 6.1100001,12.947431 5.835061,12.775853 5.5697283,12.604473 5.3098025,12.424852 5.0564732,12.236118 4.7771068,12.019721 4.5057501,11.792944 4.2167669,11.589175 4.0621452,11.475693 4.0001904,11.432502 3.8486066,11.311784 3.5823072,11.099708 3.3326765,10.866705 3.0533176,10.671103 2.7337369,10.437503 2.4132445,10.202619 2.0665495,10.010119 c -0.062493,-0.033085 -0.109282,0.05529 -0.046789,0.08838 z" />
        <path
           style="fill:#71c837;fill-opacity:1;stroke-width:4.99999;stroke-linecap:round;stroke-linejoin:round"
           id="path56"
           d="m 4.2304956,10.133852 c -0.00212,0.192064 -2.257e-4,0.383784 0.010189,0.575578 0.00127,0.03135 0.00254,0.06269 0.00382,0.09404 0.00287,0.07065 0.1027872,0.06659 0.099917,-0.0041 v 0 c -0.0013,-0.0318 -0.00259,-0.06361 -0.00388,-0.09541 -0.01034,-0.189985 -0.012128,-0.379895 -0.010041,-0.570149 0,-0.07071 -0.1000001,-0.07071 -0.1000001,0 z" />
        <path
           style="fill:#71c837;fill-opacity:1;stroke-width:4.99999;stroke-linecap:round;stroke-linejoin:round"
           id="path57"
           d="m 5.4027477,10.58562 c -0.00238,0.285798 0.0027,0.571513 0.00805,0.857244 0.00375,0.132269 0.00515,0.264342 0.00225,0.39661 -0.00153,0.07069 0.098449,0.07286 0.099977,0.0022 v 0 c 0.00285,-0.133613 0.00161,-0.267031 -0.00225,-0.400643 -0.00534,-0.285107 -0.010411,-0.570198 -0.00804,-0.855371 0,-0.07071 -0.1,-0.07071 -0.1,0 z" />
        <path
           style="fill:#71c837;fill-opacity:1;stroke-width:4.99999;stroke-linecap:round;stroke-linejoin:round"
           id="path58"
           d="m 6.6282839,10.924617 c 2.646e-4,0.240788 -0.00673,0.481523 -0.010692,0.722272 -0.00415,0.261538 -0.0037,0.52309 -0.011867,0.784544 -0.00337,0.09599 -0.00706,0.191974 -0.00985,0.287987 -0.00206,0.07068 0.097904,0.07359 0.099958,0.0029 v 0 c 0.00279,-0.09594 0.00648,-0.191849 0.00984,-0.287771 0.00818,-0.261946 0.00777,-0.52399 0.011901,-0.78602 0.00397,-0.241298 0.010988,-0.482581 0.010705,-0.723917 0,-0.07071 -0.1,-0.07071 -0.1,0 z" />
        <path
           style="fill:#71c837;fill-opacity:1;stroke-width:4.99999;stroke-linecap:round;stroke-linejoin:round"
           id="path59"
           d="m 7.7117288,11.785661 c 0.0056,0.24709 -0.060681,0.487487 -0.1206793,0.724884 -0.058714,0.226525 -0.1120762,0.454365 -0.1529141,0.684806 -0.01233,0.06963 0.086139,0.08706 0.098468,0.01744 v 0 c 0.040352,-0.228082 0.093339,-0.453541 0.1513985,-0.677745 0.061998,-0.245426 0.129554,-0.493973 0.1237266,-0.749381 0,-0.07071 -0.1000001,-0.07071 -0.1000001,0 z" />
        <path
           style="fill:#71c837;fill-opacity:1;stroke-width:4.99999;stroke-linecap:round;stroke-linejoin:round"
           id="path60"
           d="m 8.4413642,12.937578 c -0.1085453,0.149951 -0.2034143,0.308377 -0.2905117,0.471494 -0.033292,0.06238 0.05493,0.109465 0.088223,0.04708 v 0 c 0.085075,-0.159498 0.177855,-0.31433 0.2839857,-0.460908 0.040778,-0.05777 -0.040919,-0.115437 -0.081697,-0.05767 z" />
        <path
           style="fill:#71c837;fill-opacity:1;stroke-width:4.99999;stroke-linecap:round;stroke-linejoin:round"
           id="path61"
           d="m 2.2408895,11.945446 c 0.2071887,-0.01706 0.4151125,-0.0211 0.6225681,-0.03412 0.037646,-0.0025 0.075293,-0.0051 0.112939,-0.0076 0.070549,-0.0048 0.063806,-0.104541 -0.00674,-0.09977 v 0 c -0.037489,0.0025 -0.074977,0.0051 -0.1124659,0.0076 -0.2097722,0.01319 -0.4200487,0.017 -0.6295141,0.0348 -0.07009,0.0093 -0.056874,0.108468 0.013216,0.09912 z" />
        <path
           style="fill:#71c837;fill-opacity:1;stroke-width:4.99999;stroke-linecap:round;stroke-linejoin:round"
           id="path62"
           d="m 2.6634442,12.838203 c 0.2255658,-0.0011 0.4517107,-0.01327 0.675594,-0.04103 0.2407528,-0.03827 0.4820052,-0.07305 0.722232,-0.114502 0.06968,-0.01203 0.052671,-0.11057 -0.01701,-0.09854 v 0 c -0.2386796,0.04122 -0.4783966,0.07569 -0.7175878,0.113812 -0.2197415,0.02753 -0.4418211,0.03894 -0.6632287,0.04026 -0.070711,0 -0.070711,0.1 5e-7,0.1 z" />
        <path
           style="fill:#71c837;fill-opacity:1;stroke-width:4.99999;stroke-linecap:round;stroke-linejoin:round"
           id="path63"
           d="m 3.8669698,13.761795 c 0.018724,-0.0031 0.037597,-0.0054 0.056175,-0.0093 0.07022,-0.01468 0.1680594,-0.04105 0.2340343,-0.05828 0.1559912,-0.04073 0.3119959,-0.08141 0.4678415,-0.122695 0.1882997,-0.04747 0.376138,-0.09623 0.5632844,-0.148028 0.06242,-0.01858 0.1257409,-0.03376 0.1887313,-0.05021 0.068416,-0.01787 0.043146,-0.114623 -0.02527,-0.09675 v 0 c -0.063457,0.01658 -0.12725,0.03188 -0.1901367,0.05059 -0.1867916,0.0517 -0.3742774,0.100347 -0.5622187,0.14774 -0.2435182,0.06452 -0.4867288,0.131413 -0.7324415,0.186922 -0.070711,0 -0.070711,0.1 0,0.1 z" />
        <path
           style="fill:#71c837;fill-opacity:1;stroke-width:4.99999;stroke-linecap:round;stroke-linejoin:round"
           id="path64"
           d="m 4.8301441,14.550642 c 0.2200833,-0.0778 0.437782,-0.161334 0.6505649,-0.257358 0.040638,-0.02094 0.081493,-0.04146 0.1219134,-0.06282 0.063528,-0.03356 0.1518481,-0.08362 0.2164813,-0.116414 0.098672,-0.05006 0.2009074,-0.09243 0.3009588,-0.139593 0.097848,-0.0495 0.2027332,-0.08012 0.3086581,-0.106327 0.068624,-0.01705 0.04451,-0.1141 -0.024114,-0.09705 v 0 c -0.1122437,0.028 -0.2234129,0.0606 -0.3271988,0.11293 -0.1015162,0.0479 -0.2051781,0.09096 -0.3053141,0.141777 -0.064632,0.0328 -0.1515944,0.08208 -0.2153187,0.115805 -0.03887,0.02057 -0.078147,0.04037 -0.1172205,0.06055 -0.2121622,0.09587 -0.4294664,0.178598 -0.6488023,0.256581 -0.064993,0.02786 -0.025601,0.119769 0.039392,0.09192 z" />
        <path
           style="fill:#71c837;fill-opacity:1;stroke-width:4.99999;stroke-linecap:round;stroke-linejoin:round"
           id="path65"
           d="m 6.0605402,15.187661 c 0.1745295,-0.07967 0.3240715,-0.202817 0.4806061,-0.311843 0.030405,-0.02095 0.060773,-0.04195 0.091216,-0.06284 0.072536,-0.04978 0.1026824,-0.07252 0.179595,-0.11525 0.096713,-0.05373 0.1984322,-0.09806 0.2987106,-0.144544 0.077306,-0.03476 0.1565968,-0.06469 0.2349605,-0.09694 0.065388,-0.02691 0.027325,-0.119387 -0.038063,-0.09247 v 0 c -0.079702,0.03281 -0.16037,0.06322 -0.2389537,0.09868 -0.1035618,0.04801 -0.2084466,0.09395 -0.3082414,0.149605 -0.079233,0.04419 -0.1106421,0.06771 -0.1847419,0.118568 -0.030584,0.02099 -0.061093,0.04209 -0.09164,0.06314 -0.1513187,0.105416 -0.295779,0.224733 -0.4640625,0.302517 -0.064616,0.02872 -0.024003,0.1201 0.040614,0.09138 z" />
      </g>
      <g
         id="g15"
         inkscape:label="taters"
         transform="matrix(1.2164123,0,0,1.2164123,-4.1107506,0.05953889)">
        <path
           style="fill:#ffdd55;stroke:#ffd11a;stroke-width:0.082209;stroke-linecap:round;stroke-linejoin:round;stroke-dasharray:none;stroke-opacity:1"
           d="m 11.706043,1.9489668 c 0.941547,0.5011241 2.055185,0.7019604 2.175863,2.6354631 0.09769,0.1587497 -0.996742,1.7531448 -1.596465,1.3665743 C 11.903866,5.7050512 9.7324283,3.3630168 9.7324283,3.3630168 10.187949,2.8080861 10.254311,2.0924167 11.706044,1.9489652 Z"
           id="path13"
           sodipodi:nodetypes="ccscc" />
        <path
           style="fill:#ffdd55;stroke:#ffd11a;stroke-width:0.082209;stroke-linecap:round;stroke-linejoin:round;stroke-dasharray:none;stroke-opacity:1"
           d="M 8.0060408,6.2205442 11.152999,5.1733384 c 0.413394,0.8824006 1.46597,1.5884758 1.120154,2.6803139 C 12.110195,8.2593742 11.967404,8.4938411 10.969636,8.8077584 10.066208,8.8611705 9.100739,8.2416707 8.0060408,6.2205442 Z"
           id="path14"
           sodipodi:nodetypes="ccccc" />
        <path
           style="fill:#ffdd55;stroke:#ffd11a;stroke-width:0.082209;stroke-linecap:round;stroke-linejoin:round;stroke-dasharray:none;stroke-opacity:1"
           d="M 7.6826733,4.1025691 C 8.239511,4.766907 8.9578562,5.2051341 9.8622065,5.3829538 L 9.4725704,2.3126725 C 8.7597298,2.1674456 8.1744573,1.5068495 7.1960992,2.4343161 7.1048273,3.0093155 7.016088,3.5841261 7.6826733,4.1025691 Z"
           id="path15"
           sodipodi:nodetypes="ccccc" />
      </g>
    </g>
  </g>
</svg>
